# xmcd
# Copyright (C) 1995-1998 Ti Kan
#
# Track frame offsets:
#       150
#       17133
#       36705
#       52127
#       66926
#       84794
#       98851
#       114342
#       128607
#       145427
#       160133
#       175824
#       196352
#       214229
#       228596
#       244438
#
# Disc length: 3517 seconds
#
# Revision: 0
# Processed by: cddbd v1.5.2PL0 Copyright (c) Steve Scherf et al.
# Submitted via: CD-Transfer v1.0
#
DISCID=ea0dbb10
DTITLE=Frank Galan - 
DYEAR=2007
DGENRE=
TTITLE0=Que Si, Que Si, Que No
TTITLE1=Ave Maria - Die Kraft Ihrer Liebe
TTITLE2=Canta, Canta, Canta
TTITLE3=Dame Tu Vida Mi Amor
TTITLE4=Schau Dem Leben Ins Gesicht
TTITLE5=La Vida
TTITLE6=Vuelve A Mi
TTITLE7=Nur Einen Sommer Lang
TTITLE8=Se Nos Murio La Pasion
TTITLE9=Si Tu Me Quieres Mujer
TTITLE10=Tausend Feuer
TTITLE11=Julio Medley
TTITLE12=Gira, Gira Corazon
TTITLE13=Hay Que Saber Vivir
TTITLE14=Vamos
TTITLE15=Ave Maria
EXTD=
EXTT0=
EXTT1=
EXTT2=
EXTT3=
EXTT4=
EXTT5=
EXTT6=
EXTT7=
EXTT8=
EXTT9=
EXTT10=
EXTT11=
EXTT12=
EXTT13=
EXTT14=
EXTT15=
PLAYORDER=
